<svg width="404" height="152" viewBox="0 0 404 152" fill="none" xmlns="http://www.w3.org/2000/svg">
  <rect x="12" y="12" width="128" height="128" rx="24" stroke="#00D3FF" stroke-width="24"/>
  <path d="M172 72C169.791 72 168 73.7909 168 76C168 78.2091 169.791 80 172 80L172 72ZM234.828 78.8284C236.391 77.2663 236.391 74.7337 234.828 73.1716L209.373 47.7157C207.81 46.1536 205.278 46.1536 203.716 47.7157C202.154 49.2778 202.154 51.8105 203.716 53.3726L226.343 76L203.716 98.6274C202.154 100.19 202.154 102.722 203.716 104.284C205.278 105.846 207.81 105.846 209.373 104.284L234.828 78.8284ZM172 80L232 80L232 72L172 72L172 80Z" fill="#AFB2B2"/>
  <circle cx="328" cy="76" r="64" stroke="#00F1BA" stroke-width="24"/>
</svg>
